<?xml version="1.0" ?><!DOCTYPE svg  PUBLIC '-//W3C//DTD SVG 1.1//EN'  'http://www.w3.org/Graphics/SVG/1.1/DTD/svg11.dtd'><svg enable-background="new -1 -1 32 32" height="32px" overflow="visible" version="1.1" viewBox="-1 -1 32 32" width="32px" xml:space="preserve" xmlns="http://www.w3.org/2000/svg" xmlns:xlink="http://www.w3.org/1999/xlink"><defs/><path d="M13,30c-0.553,0-1-0.447-1-1V18H1c-0.553,0-1-0.447-1-1v-4c0-0.553,0.447-1,1-1h11V1c0-0.553,0.447-1,1-1h4  c0.553,0,1,0.447,1,1v11h11c0.553,0,1,0.447,1,1v4c0,0.553-0.447,1-1,1H18v11c0,0.553-0.447,1-1,1H13z" id="plus_1_"/></svg>